<mxfile host="app.diagrams.net" modified="2023-03-13T19:59:54.887Z" agent="5.0 (Windows NT 10.0; Win64; x64) AppleWebKit/537.36 (KHTML, like Gecko) Chrome/109.0.0.0 Safari/537.36 OPR/95.0.0.0" etag="WMrBa8PFwJbiKM1NtBhC" version="21.0.6" type="github">
  <diagram id="wFE0QG_FPsp0jaGvCLVb" name="Page-1">
    <mxGraphModel dx="1313" dy="1686" grid="1" gridSize="10" guides="1" tooltips="1" connect="1" arrows="1" fold="1" page="1" pageScale="1" pageWidth="850" pageHeight="1100" math="0" shadow="0">
      <root>
        <mxCell id="0" />
        <mxCell id="1" parent="0" />
        <mxCell id="Og9oae-aGa1iMv5LQP-v-4" value="USUÁRIO" style="shape=umlActor;verticalLabelPosition=bottom;verticalAlign=top;html=1;outlineConnect=0;" vertex="1" parent="1">
          <mxGeometry x="60" y="90" width="230" height="340" as="geometry" />
        </mxCell>
        <mxCell id="Og9oae-aGa1iMv5LQP-v-6" value="&amp;nbsp; EXIBIR&lt;span style=&quot;white-space: pre;&quot;&gt;	&lt;/span&gt;" style="ellipse;whiteSpace=wrap;html=1;align=center;" vertex="1" parent="1">
          <mxGeometry x="470" y="10" width="120" height="80" as="geometry" />
        </mxCell>
        <mxCell id="Og9oae-aGa1iMv5LQP-v-7" value="&amp;nbsp;SELECIONAR" style="ellipse;whiteSpace=wrap;html=1;" vertex="1" parent="1">
          <mxGeometry x="470" y="140" width="120" height="80" as="geometry" />
        </mxCell>
        <mxCell id="Og9oae-aGa1iMv5LQP-v-8" value="RETORNAR PARA A LISTA" style="ellipse;whiteSpace=wrap;html=1;" vertex="1" parent="1">
          <mxGeometry x="470" y="280" width="120" height="80" as="geometry" />
        </mxCell>
        <mxCell id="Og9oae-aGa1iMv5LQP-v-10" value="" style="endArrow=none;html=1;rounded=0;exitX=1;exitY=0.3333333333333333;exitDx=0;exitDy=0;exitPerimeter=0;entryX=0;entryY=1;entryDx=0;entryDy=0;" edge="1" parent="1" target="Og9oae-aGa1iMv5LQP-v-6">
          <mxGeometry width="50" height="50" relative="1" as="geometry">
            <mxPoint x="290" y="203" as="sourcePoint" />
            <mxPoint x="470" y="100" as="targetPoint" />
          </mxGeometry>
        </mxCell>
        <mxCell id="Og9oae-aGa1iMv5LQP-v-13" value="" style="endArrow=none;html=1;rounded=0;exitX=1;exitY=0.3333333333333333;exitDx=0;exitDy=0;exitPerimeter=0;entryX=0.092;entryY=0.775;entryDx=0;entryDy=0;entryPerimeter=0;" edge="1" parent="1" source="Og9oae-aGa1iMv5LQP-v-4" target="Og9oae-aGa1iMv5LQP-v-7">
          <mxGeometry width="50" height="50" relative="1" as="geometry">
            <mxPoint x="300" y="213" as="sourcePoint" />
            <mxPoint x="498" y="88" as="targetPoint" />
          </mxGeometry>
        </mxCell>
        <mxCell id="Og9oae-aGa1iMv5LQP-v-15" value="" style="endArrow=none;html=1;rounded=0;entryX=0;entryY=0.5;entryDx=0;entryDy=0;exitX=1;exitY=0.3333333333333333;exitDx=0;exitDy=0;exitPerimeter=0;" edge="1" parent="1" source="Og9oae-aGa1iMv5LQP-v-4" target="Og9oae-aGa1iMv5LQP-v-8">
          <mxGeometry width="50" height="50" relative="1" as="geometry">
            <mxPoint x="300" y="210" as="sourcePoint" />
            <mxPoint x="438" y="220" as="targetPoint" />
          </mxGeometry>
        </mxCell>
        <mxCell id="Og9oae-aGa1iMv5LQP-v-22" value="&lt;br&gt;FLUXO NORMAL&lt;br&gt;&amp;nbsp;&lt;br&gt;&amp;nbsp; 1)&amp;nbsp; ACESSO AO SITE&amp;nbsp;&lt;br&gt;2) EFETUAR LOGIN&lt;br&gt;&amp;nbsp; &amp;nbsp; &amp;nbsp; 3) EXIBIR BOTÃO PARA CRIAR UMA NOVA TAREFA&amp;nbsp;&amp;nbsp;" style="text;html=1;strokeColor=none;fillColor=none;align=center;verticalAlign=middle;whiteSpace=wrap;rounded=0;" vertex="1" parent="1">
          <mxGeometry x="580" y="40" width="348" height="90" as="geometry" />
        </mxCell>
        <mxCell id="Og9oae-aGa1iMv5LQP-v-25" value="EXIBIR LISTA DE TAREFAS" style="text;html=1;strokeColor=none;fillColor=none;align=center;verticalAlign=middle;whiteSpace=wrap;rounded=0;" vertex="1" parent="1">
          <mxGeometry x="640" y="-10" width="240" height="40" as="geometry" />
        </mxCell>
        <mxCell id="Og9oae-aGa1iMv5LQP-v-26" value="&amp;nbsp; &amp;nbsp; FLUXO ALTERNATIVO&lt;br&gt;&lt;br&gt;1) ACESSO AO SITE&lt;br&gt;&amp;nbsp; &amp;nbsp; &amp;nbsp; &amp;nbsp;2) FALHA NA CONEXÃO&lt;br&gt;&amp;nbsp; &amp;nbsp; &amp;nbsp; &amp;nbsp; 3) FLUXO ENCERRADO." style="text;html=1;strokeColor=none;fillColor=none;align=center;verticalAlign=middle;whiteSpace=wrap;rounded=0;" vertex="1" parent="1">
          <mxGeometry x="634" y="150" width="240" height="79" as="geometry" />
        </mxCell>
        <mxCell id="Og9oae-aGa1iMv5LQP-v-27" value="SELECIONAR TAREFAS DA LISTA" style="text;html=1;strokeColor=none;fillColor=none;align=center;verticalAlign=middle;whiteSpace=wrap;rounded=0;" vertex="1" parent="1">
          <mxGeometry x="954" y="-10" width="240" height="40" as="geometry" />
        </mxCell>
        <mxCell id="Og9oae-aGa1iMv5LQP-v-28" value="&lt;br&gt;FLUXO NORMAL&lt;br&gt;&amp;nbsp;&lt;br&gt;&amp;nbsp; &amp;nbsp; &amp;nbsp; &amp;nbsp; &amp;nbsp; &amp;nbsp; &amp;nbsp; &amp;nbsp; &amp;nbsp; &amp;nbsp; &amp;nbsp; &amp;nbsp; &amp;nbsp; &amp;nbsp; &amp;nbsp; &amp;nbsp; 1)&amp;nbsp; SELECIONAR TAREFA ESCOLHIDA&lt;br&gt;&amp;nbsp; &amp;nbsp; &amp;nbsp; &amp;nbsp; &amp;nbsp; &amp;nbsp; &amp;nbsp; &amp;nbsp; &amp;nbsp; &amp;nbsp; &amp;nbsp; &amp;nbsp; &amp;nbsp; &amp;nbsp; &amp;nbsp; &amp;nbsp; &amp;nbsp; &amp;nbsp; &amp;nbsp; &amp;nbsp; &amp;nbsp; &amp;nbsp; &amp;nbsp; &amp;nbsp; &amp;nbsp; &amp;nbsp; &amp;nbsp; 2) EXIBIR TITULO, DESCRIÇÃO E DATA INICIAL DA TAREFA DA TAREFA&lt;br&gt;3) FIM DO FLUXO.&amp;nbsp;" style="text;html=1;strokeColor=none;fillColor=none;align=center;verticalAlign=middle;whiteSpace=wrap;rounded=0;" vertex="1" parent="1">
          <mxGeometry x="830" y="41" width="480" height="99" as="geometry" />
        </mxCell>
        <mxCell id="Og9oae-aGa1iMv5LQP-v-30" value="DIAGRAMA DE CASOS DE USOS" style="text;html=1;strokeColor=none;fillColor=none;align=center;verticalAlign=middle;whiteSpace=wrap;rounded=0;" vertex="1" parent="1">
          <mxGeometry x="45" y="-20" width="260" height="30" as="geometry" />
        </mxCell>
      </root>
    </mxGraphModel>
  </diagram>
</mxfile>
